# xmcd
#
# Track frame offsets: 
#        150
#        16349
#        35622
#        51821
#        73246
#        88395
#        107386
#        118279
#        134506
#        153601
#        169050
#        189223
#        210746
#        226195
#        243838
#
# Disc length: 3506 seconds
#
# Revision: 0
# Processed by: cddbd v1.5.2PL0 Copyright (c) Steve Scherf et al.
# Submitted via: ExactAudioCopyFreeDBPlugin 1.0
#
DISCID=cf0db00f
DTITLE=黑鸭子 - DTSES红军装
DYEAR=2008
DGENRE=DTSES
TTITLE0=血染的风采
TTITLE1=相逢是首歌
TTITLE2=精忠报国
TTITLE3=想起老妈妈
TTITLE4=洗衣歌
TTITLE5=祝你平安
TTITLE6=真是乐死人
TTITLE7=咱当兵的人
TTITLE8=父亲
TTITLE9=军民团结一家亲
TTITLE10=红旗飘飘
TTITLE11=母亲
TTITLE12=东西南北兵
TTITLE13=说句心里话
TTITLE14=红星照我去战斗
EXTD=
EXTT0=
EXTT1=
EXTT2=
EXTT3=
EXTT4=
EXTT5=
EXTT6=
EXTT7=
EXTT8=
EXTT9=
EXTT10=
EXTT11=
EXTT12=
EXTT13=
EXTT14=
PLAYORDER=
